<?xml version="1.0" encoding="utf-8"?>
<!-- Generator: Adobe Illustrator 16.0.0, SVG Export Plug-In . SVG Version: 6.00 Build 0)  -->
<!DOCTYPE svg PUBLIC "-//W3C//DTD SVG 1.1//EN" "http://www.w3.org/Graphics/SVG/1.1/DTD/svg11.dtd">
<svg version="1.1" id="Layer_1" xmlns="http://www.w3.org/2000/svg" xmlns:xlink="http://www.w3.org/1999/xlink" x="0px" y="0px"
	 width="258.648px" height="393.751px" viewBox="0 0 258.648 393.751" enable-background="new 0 0 258.648 393.751"
	 xml:space="preserve">
<symbol  id="New_Symbol" viewBox="-32.667 -33.235 65.334 66.47">
	<polygon fill="#414042" points="32.667,-33.235 -32.667,-33.235 -32.667,33.235 32.667,33.235 	"/>
	<path fill="#939598" d="M31.335,0c0-17.307-14.029-31.336-31.336-31.336S-31.337-17.306-31.337,0
		c0,17.306,14.029,31.336,31.336,31.336S31.335,17.306,31.335,0z"/>
</symbol>
<symbol  id="New_Symbol_1" viewBox="-9 -6 18 12">
	<polygon fill="#939598" points="9,-6 -9,-6 -9,6 9,6 	"/>
	<polygon fill="#414042" points="3.875,-6 -3.875,-6 -3.875,6 3.875,6 	"/>
</symbol>
<symbol  id="New_Symbol_2" viewBox="-80 -11 160 22">
	<polygon fill="#4C4B4D" points="80,-11 -80,-11 -80,11 80,11 	"/>
	<g>
		<polygon points="-58.829,-7.25 -73.495,-7.25 -73.495,7.25 -58.829,7.25 		"/>
		<polygon points="-33.362,-7.25 -48.028,-7.25 -48.028,7.25 -33.362,7.25 		"/>
		<polygon points="-7.896,-7.25 -22.562,-7.25 -22.562,7.25 -7.896,7.25 		"/>
		<polygon points="17.57,-7.25 2.904,-7.25 2.904,7.25 17.57,7.25 		"/>
		<polygon points="43.036,-7.25 28.37,-7.25 28.37,7.25 43.036,7.25 		"/>
		<polygon points="68.503,-7.25 53.837,-7.25 53.837,7.25 68.503,7.25 		"/>
	</g>
</symbol>
<symbol  id="New_Symbol_3" viewBox="-106.239 -11 209.342 22">
	<g>
		<polygon fill="#414042" points="103.103,-11 -106.239,-11 -106.239,11 103.103,11 		"/>
		<g>
			<g>
				<polygon points="-32.435,-7.25 -47.101,-7.25 -47.101,7.25 -32.435,7.25 				"/>
				<polygon points="-6.968,-7.25 -21.634,-7.25 -21.634,7.25 -6.968,7.25 				"/>
				<polygon points="18.498,-7.25 3.832,-7.25 3.832,7.25 18.498,7.25 				"/>
				<polygon points="43.965,-7.25 29.299,-7.25 29.299,7.25 43.965,7.25 				"/>
				<polygon points="69.431,-7.25 54.765,-7.25 54.765,7.25 69.431,7.25 				"/>
				<polygon points="94.897,-7.25 80.231,-7.25 80.231,7.25 94.897,7.25 				"/>
			</g>
			<polygon points="-83.367,-7.25 -98.033,-7.25 -98.033,7.25 -83.367,7.25 			"/>
			<polygon points="-57.9,-7.25 -72.566,-7.25 -72.566,7.25 -57.9,7.25 			"/>
		</g>
	</g>
</symbol>
<symbol  id="New_Symbol_4" viewBox="-26.994 -10.5 53.987 21">
	<path fill="#414042" d="M26.993,0c0,5.457-4.164,9.939-9.487,10.449V10.5h-34c-5.799,0-10.5-4.701-10.5-10.5s4.701-10.5,10.5-10.5
		h34v0.051C22.829-9.939,26.993-5.457,26.993,0z"/>
	<path fill="#939598" d="M-13.494,0c0-1.657-1.343-3-3-3s-3,1.343-3,3s1.343,3,3,3S-13.494,1.657-13.494,0z"/>
	<path fill="#939598" d="M19.493,0c0-1.657-1.343-3-3-3s-3,1.343-3,3s1.343,3,3,3S19.493,1.657,19.493,0z"/>
</symbol>
<symbol  id="New_Symbol_5" viewBox="-376.957 -258.736 753.915 517.473">
	<path fill="#437384" d="M353.506,138.373v109l-11.049,11.364h-650.418v-517.473h661.467v24.109l23.452,23.469v326.621
		L353.506,138.373z M355.636,100.873c5.522,0,10-4.477,10-10s-4.478-10-10-10s-10,4.477-10,10S350.113,100.873,355.636,100.873z
		 M-149.879,223.873c-8.837,0-16,7.164-16,16s7.163,16,16,16s16-7.164,16-16S-141.042,223.873-149.879,223.873z M355.636-199.99
		c-8.837,0-16,7.164-16,16s7.163,16,16,16s16-7.164,16-16S364.473-199.99,355.636-199.99z"/>
	<polygon fill="#939598" points="-210.466,58.965 -376.957,58.965 -376.957,189.741 -210.466,189.741 	"/>
	<polygon fill="#414042" points="-76.543,96.207 -176.543,96.207 -176.543,146.207 -76.543,146.207 	"/>
	<polygon fill="#939598" points="280.12,-15.127 218.787,-15.127 218.787,46.206 280.12,46.206 	"/>
	
		<use xlink:href="#New_Symbol"  width="65.334" height="66.47" x="-32.667" y="-33.235" transform="matrix(1 0 0 1 -34.5605 -199.9902)" overflow="visible"/>
	<path fill="#414042" d="M268.62,15.539c0-10.584-8.581-19.166-19.166-19.166c-10.586,0-19.168,8.582-19.168,19.166
		c0,10.586,8.582,19.168,19.168,19.168C260.039,34.707,268.62,26.125,268.62,15.539z"/>
	<path fill="#939598" d="M114.271,28.373H42.958c-8.837,0-16-7.164-16-16s7.163-16,16-16h71.313c8.837,0,16,7.164,16,16
		S123.108,28.373,114.271,28.373z"/>
	<g>
		<polygon fill="#939598" points="-213.183,-95.994 -174.403,-95.994 -174.403,-105.594 -213.183,-105.594 		"/>
		<polygon fill="#939598" points="-213.183,-74.795 -174.403,-74.795 -174.403,-84.395 -213.183,-84.395 		"/>
		<polygon fill="#939598" points="-213.183,-54.795 -174.403,-54.795 -174.403,-64.395 -213.183,-64.395 		"/>
	</g>
	<g>
		<polygon fill="#414042" points="-265.878,-49.793 -265.878,-109.127 -213.211,-109.127 -213.211,-49.793 		"/>
		<path fill="#939598" d="M-265.95-55.344c-7.824,0-14.167-10.857-14.167-24.25s6.343-24.25,14.167-24.25
			c0.024,0,0.048,0.002,0.072,0.002v48.494C-265.902-55.348-265.926-55.344-265.95-55.344z"/>
	</g>
	<g>
		<polygon fill="#939598" points="-167.292,79.623 -170.542,79.623 -170.542,96.207 -167.292,96.207 		"/>
		<polygon fill="#939598" points="-160.772,79.623 -164.022,79.623 -164.022,96.207 -160.772,96.207 		"/>
		<polygon fill="#939598" points="-154.253,79.623 -157.503,79.623 -157.503,96.207 -154.253,96.207 		"/>
		<polygon fill="#939598" points="-147.733,79.623 -150.983,79.623 -150.983,96.207 -147.733,96.207 		"/>
		<polygon fill="#939598" points="-141.214,79.623 -144.464,79.623 -144.464,96.207 -141.214,96.207 		"/>
		<polygon fill="#939598" points="-134.694,79.623 -137.944,79.623 -137.944,96.207 -134.694,96.207 		"/>
		<polygon fill="#939598" points="-128.175,79.623 -131.425,79.623 -131.425,96.207 -128.175,96.207 		"/>
		<polygon fill="#939598" points="-121.655,79.623 -124.905,79.623 -124.905,96.207 -121.655,96.207 		"/>
		<polygon fill="#939598" points="-115.136,79.623 -118.386,79.623 -118.386,96.207 -115.136,96.207 		"/>
		<polygon fill="#939598" points="-108.616,79.623 -111.866,79.623 -111.866,96.207 -108.616,96.207 		"/>
		<polygon fill="#939598" points="-102.097,79.623 -105.347,79.623 -105.347,96.207 -102.097,96.207 		"/>
		<polygon fill="#939598" points="-95.577,79.623 -98.827,79.623 -98.827,96.207 -95.577,96.207 		"/>
		<polygon fill="#939598" points="-89.058,79.623 -92.308,79.623 -92.308,96.207 -89.058,96.207 		"/>
		<polygon fill="#939598" points="-82.538,79.623 -85.788,79.623 -85.788,96.207 -82.538,96.207 		"/>
	</g>
	<g>
		<polygon fill="#939598" points="-167.295,146.207 -170.545,146.207 -170.545,162.791 -167.295,162.791 		"/>
		<polygon fill="#939598" points="-160.775,146.207 -164.025,146.207 -164.025,162.791 -160.775,162.791 		"/>
		<polygon fill="#939598" points="-154.256,146.207 -157.506,146.207 -157.506,162.791 -154.256,162.791 		"/>
		<polygon fill="#939598" points="-147.736,146.207 -150.986,146.207 -150.986,162.791 -147.736,162.791 		"/>
		<polygon fill="#939598" points="-141.217,146.207 -144.467,146.207 -144.467,162.791 -141.217,162.791 		"/>
		<polygon fill="#939598" points="-134.697,146.207 -137.947,146.207 -137.947,162.791 -134.697,162.791 		"/>
		<polygon fill="#939598" points="-128.178,146.207 -131.428,146.207 -131.428,162.791 -128.178,162.791 		"/>
		<polygon fill="#939598" points="-121.658,146.207 -124.908,146.207 -124.908,162.791 -121.658,162.791 		"/>
		<polygon fill="#939598" points="-115.139,146.207 -118.389,146.207 -118.389,162.791 -115.139,162.791 		"/>
		<polygon fill="#939598" points="-108.619,146.207 -111.869,146.207 -111.869,162.791 -108.619,162.791 		"/>
		<polygon fill="#939598" points="-102.1,146.207 -105.35,146.207 -105.35,162.791 -102.1,162.791 		"/>
		<polygon fill="#939598" points="-95.58,146.207 -98.83,146.207 -98.83,162.791 -95.58,162.791 		"/>
		<polygon fill="#939598" points="-89.061,146.207 -92.311,146.207 -92.311,162.791 -89.061,162.791 		"/>
		<polygon fill="#939598" points="-82.541,146.207 -85.791,146.207 -85.791,162.791 -82.541,162.791 		"/>
	</g>
	<path fill="#E6E7E8" d="M-161.835,107.444c0-3.26-2.643-5.902-5.903-5.902s-5.903,2.643-5.903,5.902
		c0,3.26,2.643,5.902,5.903,5.902S-161.835,110.704-161.835,107.444z"/>
	
		<use xlink:href="#New_Symbol_1"  width="18" height="12" x="-9" y="-6" transform="matrix(1 0 0 1 -126.8545 -51.8779)" overflow="visible"/>
	
		<use xlink:href="#New_Symbol"  width="65.334" height="66.47" id="XMLID_18_" x="-32.667" y="-33.235" transform="matrix(1 0 0 1 -117.3848 -199.9902)" overflow="visible"/>
	<path fill="#414042" d="M330.069-82.793c0,5.426,4.397,9.822,9.822,9.822v26.512H-14.466v-72.666h354.357v26.51
		C334.467-92.615,330.069-88.217,330.069-82.793z"/>
	<g>
		<polygon fill="#939598" points="4.87,-45.793 -12.796,-45.793 -12.796,-40.795 4.87,-40.795 		"/>
		<polygon fill="#939598" points="32.649,-45.793 14.983,-45.793 14.983,-40.795 32.649,-40.795 		"/>
		<polygon fill="#939598" points="60.429,-45.793 42.763,-45.793 42.763,-40.795 60.429,-40.795 		"/>
		<polygon fill="#939598" points="88.208,-45.793 70.542,-45.793 70.542,-40.795 88.208,-40.795 		"/>
		<polygon fill="#939598" points="115.987,-45.793 98.321,-45.793 98.321,-40.795 115.987,-40.795 		"/>
		<polygon fill="#939598" points="143.767,-45.793 126.101,-45.793 126.101,-40.795 143.767,-40.795 		"/>
		<polygon fill="#939598" points="171.546,-45.793 153.88,-45.793 153.88,-40.795 171.546,-40.795 		"/>
		<polygon fill="#939598" points="199.325,-45.793 181.659,-45.793 181.659,-40.795 199.325,-40.795 		"/>
		<polygon fill="#939598" points="227.104,-45.793 209.438,-45.793 209.438,-40.795 227.104,-40.795 		"/>
		<polygon fill="#939598" points="254.884,-45.793 237.218,-45.793 237.218,-40.795 254.884,-40.795 		"/>
		<polygon fill="#939598" points="282.663,-45.793 264.997,-45.793 264.997,-40.795 282.663,-40.795 		"/>
		<polygon fill="#939598" points="310.442,-45.793 292.776,-45.793 292.776,-40.795 310.442,-40.795 		"/>
		<polygon fill="#939598" points="338.222,-45.793 320.556,-45.793 320.556,-40.795 338.222,-40.795 		"/>
	</g>
	<g>
		<polygon fill="#939598" points="4.87,-123.459 -12.796,-123.459 -12.796,-118.459 4.87,-118.459 		"/>
		<polygon fill="#939598" points="32.649,-123.459 14.983,-123.459 14.983,-118.459 32.649,-118.459 		"/>
		<polygon fill="#939598" points="60.429,-123.459 42.763,-123.459 42.763,-118.459 60.429,-118.459 		"/>
		<polygon fill="#939598" points="88.208,-123.459 70.542,-123.459 70.542,-118.459 88.208,-118.459 		"/>
		<polygon fill="#939598" points="115.987,-123.459 98.321,-123.459 98.321,-118.459 115.987,-118.459 		"/>
		<polygon fill="#939598" points="143.767,-123.459 126.101,-123.459 126.101,-118.459 143.767,-118.459 		"/>
		<polygon fill="#939598" points="171.546,-123.459 153.88,-123.459 153.88,-118.459 171.546,-118.459 		"/>
		<polygon fill="#939598" points="199.325,-123.459 181.659,-123.459 181.659,-118.459 199.325,-118.459 		"/>
		<polygon fill="#939598" points="227.104,-123.459 209.438,-123.459 209.438,-118.459 227.104,-118.459 		"/>
		<polygon fill="#939598" points="254.884,-123.459 237.218,-123.459 237.218,-118.459 254.884,-118.459 		"/>
		<polygon fill="#939598" points="282.663,-123.459 264.997,-123.459 264.997,-118.459 282.663,-118.459 		"/>
		<polygon fill="#939598" points="310.442,-123.459 292.776,-123.459 292.776,-118.459 310.442,-118.459 		"/>
		<polygon fill="#939598" points="338.222,-123.459 320.556,-123.459 320.556,-118.459 338.222,-118.459 		"/>
	</g>
	
		<use xlink:href="#New_Symbol_1"  width="18" height="12" x="-9" y="-6" transform="matrix(1 0 0 1 -126.543 -84.3945)" overflow="visible"/>
	
		<use xlink:href="#New_Symbol_1"  width="18" height="12" x="-9" y="-6" transform="matrix(1 0 0 1 -147.543 187.2046)" overflow="visible"/>
	
		<use xlink:href="#New_Symbol_1"  width="18" height="12" x="-9" y="-6" transform="matrix(1 0 0 1 -102.7227 187.2046)" overflow="visible"/>
	
		<use xlink:href="#New_Symbol_1"  width="18" height="12" x="-9" y="-6" transform="matrix(1 0 0 1 -28.209 176.8701)" overflow="visible"/>
	
		<use xlink:href="#New_Symbol_1"  width="18" height="12" x="-9" y="-6" transform="matrix(1 0 0 1 -28.209 154.1646)" overflow="visible"/>
	
		<use xlink:href="#New_Symbol_1"  width="18" height="12" x="-9" y="-6" transform="matrix(1 0 0 1 -28.209 133.4985)" overflow="visible"/>
	
		<use xlink:href="#New_Symbol_1"  width="18" height="12" x="-9" y="-6" transform="matrix(1 0 0 1 -28.209 112.3462)" overflow="visible"/>
	
		<use xlink:href="#New_Symbol_1"  width="18" height="12" x="-9" y="-6" transform="matrix(1 0 0 1 -28.209 91.2261)" overflow="visible"/>
	
		<use xlink:href="#New_Symbol_1"  width="18" height="12" x="-9" y="-6" transform="matrix(1 0 0 1 -28.209 68.5215)" overflow="visible"/>
	
		<use xlink:href="#New_Symbol_1"  width="18" height="12" x="-9" y="-6" transform="matrix(1 0 0 1 -28.209 47.8535)" overflow="visible"/>
	
		<use xlink:href="#New_Symbol_1"  width="18" height="12" x="-9" y="-6" transform="matrix(1 0 0 1 -28.209 26.7021)" overflow="visible"/>
	
		<use xlink:href="#New_Symbol_1"  width="18" height="12" x="-9" y="-6" transform="matrix(1 0 0 1 -28.209 -21.627)" overflow="visible"/>
	
		<use xlink:href="#New_Symbol_1"  width="18" height="12" x="-9" y="-6" transform="matrix(1 0 0 1 51.5957 46.2061)" overflow="visible"/>
	
		<use xlink:href="#New_Symbol_1"  width="18" height="12" id="XMLID_17_" x="-9" y="-6" transform="matrix(1 0 0 1 104.9297 46.2061)" overflow="visible"/>
	
		<use xlink:href="#New_Symbol_1"  width="18" height="12" x="-9" y="-6" transform="matrix(1 0 0 1 168.2627 46.2061)" overflow="visible"/>
	
		<use xlink:href="#New_Symbol_1"  width="18" height="12" x="-9" y="-6" transform="matrix(1 0 0 1 168.2627 18.7021)" overflow="visible"/>
	
		<use xlink:href="#New_Symbol_1"  width="18" height="12" x="-9" y="-6" transform="matrix(1 0 0 1 168.2627 -10.127)" overflow="visible"/>
	
		<use xlink:href="#New_Symbol_1"  width="18" height="12" x="-9" y="-6" transform="matrix(1 0 0 1 239.7861 100.8726)" overflow="visible"/>
	
		<use xlink:href="#New_Symbol_1"  width="18" height="12" x="-9" y="-6" transform="matrix(1 0 0 1 287.3301 100.8726)" overflow="visible"/>
	
		<use xlink:href="#New_Symbol_2"  width="160" height="22" id="XMLID_16_" x="-80" y="-11" transform="matrix(1 0 0 1 87.4551 -236.459)" overflow="visible"/>
	
		<use xlink:href="#New_Symbol_2"  width="160" height="22" x="-80" y="-11" transform="matrix(1 0 0 1 271.457 -236.459)" overflow="visible"/>
	
		<use xlink:href="#New_Symbol_3"  width="209.342" height="22" id="XMLID_15_" x="-106.239" y="-11" transform="matrix(1 0 0 1 245.0449 240.8735)" overflow="visible"/>
	
		<use xlink:href="#New_Symbol_3"  width="209.342" height="22" id="XMLID_14_" x="-106.239" y="-11" transform="matrix(1 0 0 1 23.8164 240.8735)" overflow="visible"/>
	
		<use xlink:href="#New_Symbol_4"  width="53.987" height="21" id="XMLID_13_" x="-26.994" y="-10.5" transform="matrix(1 0 0 1 343.8691 42.1221)" overflow="visible"/>
	
		<use xlink:href="#New_Symbol_4"  width="53.987" height="21" x="-26.994" y="-10.5" transform="matrix(1 0 0 1 343.8691 15.998)" overflow="visible"/>
	
		<use xlink:href="#New_Symbol_4"  width="53.987" height="21" x="-26.994" y="-10.5" transform="matrix(1 0 0 1 343.8691 -10.127)" overflow="visible"/>
	<g>
		<polygon points="-300.229,-212.754 -333.467,-212.754 -333.467,-124.334 -300.229,-124.334 		"/>
		<polygon points="-199.891,-202.178 -300.082,-202.178 -300.082,-134.908 -199.891,-134.908 		"/>
	</g>
</symbol>
<symbol  id="Wheel" viewBox="-29.375 -45.833 58.75 91.666">
	<g>
		<path fill="#FFF200" d="M29.375-29.916c0-1.559-1.275-2.834-2.835-2.834h-53.08c-1.56,0-2.835,1.275-2.835,2.834v59.831
			c0,1.559,1.275,2.834,2.835,2.834h53.08c1.56,0,2.835-1.275,2.835-2.834V-29.916z"/>
	</g>
	<g>
		<path fill="#414042" d="M26.809-37.329c0-4.677-3.827-8.504-8.504-8.504h-36.608c-4.677,0-8.504,3.827-8.504,8.504v74.658
			c0,4.677,3.827,8.504,8.504,8.504h36.608c4.677,0,8.504-3.827,8.504-8.504V-37.329z"/>
	</g>
	<g>
		
			<line fill="#9B8579" stroke="#000000" stroke-width="3" stroke-miterlimit="10" x1="-15.75" y1="45.833" x2="-15.75" y2="-45.833"/>
		<line fill="#9B8579" stroke="#000000" stroke-width="3" stroke-miterlimit="10" x1="0" y1="45.833" x2="0" y2="-45.833"/>
		<line fill="#58595B" stroke="#000000" stroke-width="3" stroke-miterlimit="10" x1="15.75" y1="45.833" x2="15.75" y2="-45.833"/>
	</g>
</symbol>
<g>
	<g>
		
			<use xlink:href="#Wheel"  width="58.75" height="91.666" x="-29.375" y="-45.833" transform="matrix(1 0 0 -1 29.375 124.1855)" overflow="visible"/>
		
			<use xlink:href="#Wheel"  width="58.75" height="91.666" x="-29.375" y="-45.833" transform="matrix(1 0 0 -1 29.375 269.8789)" overflow="visible"/>
	</g>
	<g>
		
			<use xlink:href="#Wheel"  width="58.75" height="91.666" x="-29.375" y="-45.833" transform="matrix(1 0 0 -1 229.2734 124.1855)" overflow="visible"/>
		
			<use xlink:href="#Wheel"  width="58.75" height="91.666" x="-29.375" y="-45.833" transform="matrix(1 0 0 -1 229.2734 269.8789)" overflow="visible"/>
	</g>
</g>
<path fill="#313030" d="M193.658,68.75h60.146c0-37.97-55.732-68.75-124.48-68.75S4.844,30.78,4.844,68.75H64.99v110.729H4.844
	v34.791H64.99v110.73H4.844c0,37.969,55.732,68.75,124.48,68.75s124.48-30.781,124.48-68.75h-60.146v-110.73h60.146v-34.791h-60.146
	V68.75z M85.904,24.333h82v5.669h-82V24.333z M166.313,40.612v54.555h-5.67V40.612H166.313z M143.756,40.612v54.555h-33.703V40.612
	H143.756z M87.495,40.612h5.67v54.555h-5.67V40.612z M170.324,363.167h-82v-5.669h82V363.167z"/>
<use xlink:href="#New_Symbol_5"  width="753.915" height="517.473" id="XMLID_7_" x="-376.957" y="-258.736" transform="matrix(-6.007247e-09 -0.1374 -0.1374 6.007247e-09 148.6328 282.3506)" overflow="visible"/>
</svg>
